<svg id="SvgjsSvg1012" width="288" height="288" xmlns="http://www.w3.org/2000/svg" version="1.1" xmlns:xlink="http://www.w3.org/1999/xlink" xmlns:svgjs="http://svgjs.com/svgjs"><defs id="SvgjsDefs1013"></defs><g id="SvgjsG1014"><svg xmlns="http://www.w3.org/2000/svg" enable-background="new 0 0 32 32" viewBox="0 0 32 32" width="288" height="288"><path d="M28.57001,6.23999L16.64001,0.64001c-0.41003-0.19-0.87-0.19-1.28003,0L3.42999,6.23999c-0.52002,0.25-0.85999,0.77997-0.85999,1.35999s0.33997,1.10999,0.85999,1.35999L15.35999,14.56C15.56,14.64996,15.78003,14.70001,16,14.70001s0.44-0.05005,0.64001-0.14001l11.92999-5.60004c0.52002-0.25,0.85999-0.77997,0.85999-1.35999S29.09003,6.48999,28.57001,6.23999z" fill="#ffffff" class="color000 svgShape"></path><path d="M29.28809,12.56226c-0.35156-0.75-1.24609-1.07031-1.99512-0.71973L16,17.14233l-11.29297-5.2998c-0.75-0.35156-1.64453-0.03125-1.99512,0.71973c-0.35254,0.75-0.03027,1.64355,0.71973,1.99512l11.93066,5.59961c0.20215,0.09473,0.41992,0.14258,0.6377,0.14258s0.43555-0.04785,0.6377-0.14258l11.93066-5.59961C29.31836,14.20581,29.64063,13.31226,29.28809,12.56226z" fill="#ffffff" class="color000 svgShape"></path><path d="M29.28809,18.16187c-0.35156-0.75-1.24609-1.07031-1.99512-0.71973L16,22.74292L4.70703,17.44214c-0.75-0.35156-1.64453-0.03125-1.99512,0.71973c-0.35254,0.75-0.03027,1.64355,0.71973,1.99512l11.93066,5.60059c0.20215,0.09473,0.41992,0.14258,0.6377,0.14258s0.43555-0.04785,0.6377-0.14258l11.93066-5.60059C29.31836,19.80542,29.64063,18.91187,29.28809,18.16187z" fill="#ffffff" class="color000 svgShape"></path><path d="M29.28809,23.76245c-0.35156-0.75-1.24609-1.07227-1.99512-0.71973L16,28.34253l-11.29297-5.2998c-0.75-0.35254-1.64453-0.03027-1.99512,0.71973c-0.35254,0.75-0.03027,1.64355,0.71973,1.99512l11.93066,5.59961c0.20215,0.09473,0.41992,0.14258,0.6377,0.14258s0.43555-0.04785,0.6377-0.14258l11.93066-5.59961C29.31836,25.40601,29.64063,24.51245,29.28809,23.76245z" fill="#ffffff" class="color000 svgShape"></path></svg></g></svg>