<svg id="SvgjsSvg1011" width="288" height="288" xmlns="http://www.w3.org/2000/svg" version="1.1" xmlns:xlink="http://www.w3.org/1999/xlink" xmlns:svgjs="http://svgjs.com/svgjs"><defs id="SvgjsDefs1012"></defs><g id="SvgjsG1013"><svg xmlns="http://www.w3.org/2000/svg" width="288" height="288" baseProfile="tiny" version="1.2" viewBox="0 0 24 24"><path d="M12 3s-6.186 5.34-9.643 8.232A1.041 1.041 0 0 0 2 12a1 1 0 0 0 1 1h2v7a1 1 0 0 0 1 1h3a1 1 0 0 0 1-1v-4h4v4a1 1 0 0 0 1 1h3a1 1 0 0 0 1-1v-7h2a1 1 0 0 0 1-1 .98.98 0 0 0-.383-.768C18.184 8.34 12 3 12 3z" fill="#fdf8f8" class="color000 svgShape"></path></svg></g></svg>