<svg id="SvgjsSvg1030" width="288" height="288" xmlns="http://www.w3.org/2000/svg" version="1.1" xmlns:xlink="http://www.w3.org/1999/xlink" xmlns:svgjs="http://svgjs.com/svgjs"><defs id="SvgjsDefs1031"></defs><g id="SvgjsG1032"><svg xmlns="http://www.w3.org/2000/svg" width="288" height="288" viewBox="0 0 24 24"><path fill="none" d="M0 0h24v24H0z"></path><path fill="#ffffff" d="M18 2H6a2 2 0 0 0-2 2v16a2 2 0 0 0 2 2h12a2 2 0 0 0 2-2V4a2 2 0 0 0-2-2zm-7 17.415l-3.707-3.708 1.414-1.414L11 16.586l4.293-4.293 1.414 1.414L11 19.415zm0-8L7.293 7.707l1.414-1.414L11 8.586l4.293-4.293 1.414 1.414L11 11.415z" class="color757575 svgShape"></path></svg></g></svg>