<svg id="SvgjsSvg1036" width="288" height="288" xmlns="http://www.w3.org/2000/svg" version="1.1" xmlns:xlink="http://www.w3.org/1999/xlink" xmlns:svgjs="http://svgjs.com/svgjs"><defs id="SvgjsDefs1037"></defs><g id="SvgjsG1038"><svg xmlns="http://www.w3.org/2000/svg" enable-background="new 0 0 512 512" viewBox="0 0 512 512" width="288" height="288"><path fill-rule="evenodd" d="M256,189.273c27.735,0,53.267,9.432,73.563,25.263c-11.083,13.276-17.756,30.362-17.756,49.005
	c0,17.015,5.559,32.733,14.955,45.442H185.239c9.396-12.709,14.955-28.426,14.955-45.442c0-18.643-6.673-35.729-17.756-49.005
	C202.734,198.705,228.266,189.273,256,189.273L256,189.273z M123.669,340.233c53.77,0,99.26,35.451,114.372,84.254
	c2.656,8.574,1.212,17.105-4.114,24.33c-5.326,7.225-13.048,11.126-22.024,11.126H35.434c-8.976,0-16.698-3.901-22.024-11.126
	c-5.326-7.225-6.769-15.756-4.114-24.33C24.409,375.685,69.9,340.233,123.669,340.233L123.669,340.233z M388.332,203.017
	c-33.427,0-60.525,27.098-60.525,60.525s27.098,60.525,60.525,60.525c33.427,0,60.525-27.098,60.525-60.525
	S421.759,203.017,388.332,203.017L388.332,203.017z M123.669,203.017c-33.427,0-60.525,27.098-60.525,60.525
	s27.098,60.525,60.525,60.525c33.427,0,60.525-27.098,60.525-60.525S157.096,203.017,123.669,203.017L123.669,203.017z
	 M388.331,340.233c53.77,0,99.26,35.451,114.372,84.254c2.656,8.574,1.212,17.105-4.114,24.33
	c-5.326,7.225-13.048,11.126-22.024,11.126H300.097c-8.976,0-16.698-3.901-22.024-11.126c-5.326-7.225-6.769-15.756-4.114-24.33
	C289.072,375.685,334.563,340.233,388.331,340.233L388.331,340.233z M256.001,52.057c33.427,0,60.525,27.098,60.525,60.525
	s-27.098,60.525-60.525,60.525c-33.427,0-60.525-27.098-60.525-60.525S222.574,52.057,256.001,52.057z" clip-rule="evenodd" fill="#fffefe" class="color000 svgShape"></path></svg></g></svg>